<mxfile host="app.diagrams.net" modified="2024-02-06T20:51:23.476Z" agent="Mozilla/5.0 (Windows NT 10.0; Win64; x64) AppleWebKit/537.36 (KHTML, like Gecko) Chrome/121.0.0.0 Safari/537.36" version="23.1.1" etag="xFM6u0tNUw45VEfeP_zt" type="github">
  <diagram name="Page-1" id="s7Y--D9UtFJ7y3Gia970">
    <mxGraphModel>
      <root>
        <mxCell id="0" />
        <mxCell id="1" parent="0" />
      </root>
    </mxGraphModel>
  </diagram>
</mxfile>
